<svg xmlns="http://www.w3.org/2000/svg" viewBox="0 0 1200 860" role="img" aria-label="Pluffy Studio brand mockup flatlay">
  <defs>
    <linearGradient id="bg" x1="0" y1="0" x2="1" y2="1">
      <stop offset="0" stop-color="#fff8ee"/>
      <stop offset="1" stop-color="#fff1eb"/>
    </linearGradient>
    <linearGradient id="orange" x1="0" y1="0" x2="1" y2="1">
      <stop offset="0" stop-color="#f8b768"/>
      <stop offset="1" stop-color="#f6a24a"/>
    </linearGradient>
    <filter id="softShadow" x="-20%" y="-20%" width="140%" height="140%">
      <feDropShadow dx="0" dy="18" stdDeviation="22" flood-color="#8b4f34" flood-opacity=".10"/>
    </filter>
  </defs>
  <rect width="1200" height="860" rx="46" fill="url(#bg)"/>
  <circle cx="1040" cy="120" r="150" fill="#ffe4bd" opacity=".45"/>
  <circle cx="150" cy="705" r="190" fill="#ffd8cf" opacity=".34"/>
  <g filter="url(#softShadow)">
    <rect x="148" y="128" width="430" height="560" rx="28" fill="#fffdf9" transform="rotate(-5 363 408)"/>
    <rect x="198" y="198" width="218" height="18" rx="9" fill="#8b4f34" opacity=".32" transform="rotate(-5 307 207)"/>
    <rect x="198" y="245" width="292" height="16" rx="8" fill="#8b4f34" opacity=".18" transform="rotate(-5 344 253)"/>
    <rect x="198" y="286" width="250" height="16" rx="8" fill="#8b4f34" opacity=".15" transform="rotate(-5 323 294)"/>
    <rect x="220" y="390" width="260" height="170" rx="24" fill="#fff1eb" transform="rotate(-5 350 475)"/>
    <circle cx="314" cy="476" r="48" fill="url(#orange)" transform="rotate(-5 314 476)"/>
    <rect x="380" y="438" width="72" height="72" rx="20" fill="#ffe4bd" transform="rotate(-5 416 474)"/>
  </g>
  <g filter="url(#softShadow)">
    <rect x="610" y="152" width="360" height="230" rx="26" fill="#fffdf9" transform="rotate(4 790 267)"/>
    <rect x="660" y="214" width="150" height="16" rx="8" fill="#8b4f34" opacity=".28" transform="rotate(4 735 222)"/>
    <rect x="660" y="254" width="240" height="14" rx="7" fill="#8b4f34" opacity=".16" transform="rotate(4 780 261)"/>
    <rect x="660" y="294" width="198" height="14" rx="7" fill="#8b4f34" opacity=".14" transform="rotate(4 759 301)"/>
  </g>
  <g filter="url(#softShadow)">
    <rect x="675" y="478" width="340" height="210" rx="30" fill="#ffe4bd" transform="rotate(-3 845 583)"/>
    <rect x="719" y="530" width="252" height="30" rx="15" fill="#f6a24a" opacity=".88" transform="rotate(-3 845 545)"/>
    <rect x="760" y="592" width="170" height="18" rx="9" fill="#8b4f34" opacity=".25" transform="rotate(-3 845 601)"/>
  </g>
  <g filter="url(#softShadow)">
    <rect x="500" y="368" width="222" height="222" rx="30" fill="#fffdf9" transform="rotate(8 611 479)"/>
    <path d="M600 430c35-54 110 4 58 58l-58 58-58-58c-52-54 23-112 58-58z" fill="#f6a24a" opacity=".88"/>
  </g>
  <path d="M102 116c48 20 80 54 96 101" fill="none" stroke="#f6a24a" stroke-width="12" stroke-linecap="round" opacity=".36"/>
  <path d="M1010 706c-46-14-80-44-100-88" fill="none" stroke="#e8a79a" stroke-width="12" stroke-linecap="round" opacity=".4"/>
</svg>
