<?xml version="1.0" encoding="UTF-8"?>
<svg id="LINE_LOGO" data-name="LINE LOGO" xmlns="http://www.w3.org/2000/svg" viewBox="0 0 300 300">
  <path fill="#fff" d="M271,132.9c0-54.14-54.28-98.19-121-98.19S29,78.76,29,132.9c0,48.54,43.05,89.19,101.19,96.88,3.94.85,9.3,2.6,10.66,5.97,1.22,3.06.8,7.85.39,10.94,0,0-1.42,8.54-1.73,10.36-.53,3.06-2.43,11.96,10.48,6.52,12.91-5.44,69.68-41.03,95.07-70.25h0c17.54-19.23,25.94-38.75,25.94-60.42ZM107.31,161.86c0,1.28-1.03,2.31-2.31,2.31h-33.99c-1.28,0-2.31-1.03-2.31-2.31v-.04h0v-52.77c0-1.28,1.03-2.31,2.31-2.31h8.58c1.27,0,2.31,1.04,2.31,2.31v41.92h23.1c1.27,0,2.31,1.04,2.31,2.31v8.58ZM127.77,161.86c0,1.28-1.03,2.31-2.31,2.31h-8.58c-1.28,0-2.31-1.03-2.31-2.31v-52.81c0-1.28,1.03-2.31,2.31-2.31h8.58c1.28,0,2.31,1.03,2.31,2.31v52.81ZM186.19,161.86c0,1.28-1.03,2.31-2.31,2.31h-8.53c-.21,0-.41-.03-.6-.08-.01,0-.02,0-.03,0-.05-.01-.11-.03-.16-.05-.02,0-.05-.02-.07-.03-.04-.02-.08-.03-.11-.05-.04-.02-.08-.03-.11-.05-.02-.01-.05-.02-.07-.04-.05-.03-.1-.06-.14-.09,0,0-.02-.01-.03-.02-.23-.15-.43-.35-.6-.58l-24.19-32.67v31.35c0,1.28-1.03,2.31-2.31,2.31h-8.58c-1.28,0-2.31-1.03-2.31-2.31v-52.81c0-1.28,1.03-2.31,2.31-2.31h8.53s.05,0,.08,0c.04,0,.08,0,.12,0,.04,0,.08,0,.12.02.03,0,.07,0,.1.01.05,0,.09.02.14.03.03,0,.05.01.08.02.05.01.09.03.14.04.03,0,.05.02.08.03.05.02.09.04.13.06.02.01.05.02.07.04.04.02.09.05.13.07.02.01.05.03.07.04.04.03.08.06.12.08.02.02.04.03.06.05.04.03.08.07.13.11.01.01.03.03.04.04.05.05.09.09.14.14,0,0,.01.01.01.02.07.08.13.15.19.24l24.16,32.63v-31.36c0-1.28,1.03-2.31,2.31-2.31h8.58c1.28,0,2.31,1.03,2.31,2.31v52.81ZM233.06,117.63c0,1.28-1.03,2.31-2.31,2.31h-23.1v8.91h23.1c1.27,0,2.31,1.04,2.31,2.31v8.58c0,1.28-1.03,2.31-2.31,2.31h-23.1v8.91h23.1c1.27,0,2.31,1.04,2.31,2.31v8.58c0,1.28-1.03,2.31-2.31,2.31h-33.99c-1.28,0-2.31-1.03-2.31-2.31v-.04h0v-52.72h0v-.05c0-1.28,1.03-2.31,2.31-2.31h33.99c1.27,0,2.31,1.04,2.31,2.31v8.58Z"/>
</svg>
